<?xml version="1.0" encoding="utf-8"?>
<!-- Generator: Adobe Illustrator 15.0.0, SVG Export Plug-In . SVG Version: 6.00 Build 0)  -->
<!DOCTYPE svg PUBLIC "-//W3C//DTD SVG 1.1//EN" "http://www.w3.org/Graphics/SVG/1.1/DTD/svg11.dtd">
<svg version="1.1" id="Layer_1" xmlns="http://www.w3.org/2000/svg" xmlns:xlink="http://www.w3.org/1999/xlink" x="0px" y="0px"
	 width="443.079px" height="337.483px" viewBox="0 0 443.079 337.483" enable-background="new 0 0 443.079 337.483"
	 xml:space="preserve">
<g>
	<ellipse fill="#FFFFFF" cx="275.224" cy="168.741" rx="147.02" ry="141.77"/>
	<g>
		<path d="M124.704,168.741c0.219,44.23,21.2,85.777,55.943,112.984c35.842,28.07,83.122,38.078,127.494,28.795
			c42.908-8.975,80.764-37.324,101.327-76.012c20.877-39.275,21.272-86.831,2.34-126.872c-18.76-39.674-56.141-68.581-98.332-79.43
			c-44.054-11.329-92.232-2.085-128.979,24.633C147.505,79.736,124.93,122.958,124.704,168.741c-0.022,4.516,6.978,4.514,7,0
			c0.224-45.325,23.387-87.314,60.62-112.892c38.455-26.417,88.405-32.168,132.281-16.982
			c42.208,14.608,76.028,49.443,88.769,92.271c12.988,43.66,1.784,91.544-27.707,125.923
			c-30.071,35.057-76.054,52.691-121.799,49.533c-45.226-3.123-87.486-28.273-111.659-66.588
			c-13.437-21.299-20.38-46.133-20.504-71.266C131.681,164.229,124.681,164.227,124.704,168.741z"/>
	</g>
</g>
<g>
	<g>
		<path d="M16.6,26.973c0,42.936,0,85.871,0,128.806c0,50.563,0,101.128,0,151.691c0,1.014,0,2.026,0,3.04c0,4.514,7,4.514,7,0
			c0-42.936,0-85.871,0-128.806c0-50.564,0-101.128,0-151.692c0-1.013,0-2.026,0-3.04C23.6,22.458,16.6,22.458,16.6,26.973
			L16.6,26.973z"/>
	</g>
</g>
<g>
	<g>
		<path d="M20.1,172.242c36.035,0,72.069-0.001,108.104-0.001c4.514,0,4.514-7,0-7c-36.035,0-72.069,0.001-108.104,0.001
			C15.586,165.242,15.586,172.242,20.1,172.242L20.1,172.242z"/>
	</g>
</g>
</svg>
