<?xml version="1.0" encoding="utf-8"?>
<!-- Generator: Adobe Illustrator 15.0.0, SVG Export Plug-In . SVG Version: 6.00 Build 0)  -->
<!DOCTYPE svg PUBLIC "-//W3C//DTD SVG 1.1//EN" "http://www.w3.org/Graphics/SVG/1.1/DTD/svg11.dtd">
<svg version="1.1" id="Layer_1" xmlns="http://www.w3.org/2000/svg" xmlns:xlink="http://www.w3.org/1999/xlink" x="0px" y="0px"
	 width="400px" height="400px" viewBox="0 0 400 400" enable-background="new 0 0 400 400" xml:space="preserve">
<g>
	<ellipse fill="#FFFFFF" cx="195.841" cy="187.137" rx="134.243" ry="129.449"/>
	<g>
		<path d="M58.098,187.137c0.241,44.402,23.261,85.115,59.955,109.729c37.908,25.428,87.764,29.936,130.037,13.299
			c40.64-15.993,72.114-51.278,82.174-93.896c10.239-43.38-3.77-89.203-34.702-120.847c-31.784-32.515-78.576-46.31-123.112-39.306
			c-43.501,6.842-82.319,35.403-101.552,75.002C62.431,148.551,58.203,167.788,58.098,187.137c-0.024,4.515,6.976,4.513,7,0
			c0.248-45.666,25.966-86.924,65.526-109.185c40.795-22.956,92.362-21.932,132.739,1.312
			c39.306,22.627,63.93,65.264,63.191,110.634c-0.739,45.478-28.241,86.428-67.83,107.693
			c-40.412,21.709-90.838,20.198-130.405-2.58c-38.432-22.125-62.98-63.494-63.221-107.874
			C65.073,182.624,58.073,182.622,58.098,187.137z"/>
	</g>
</g>
<g>
	<g>
		<path d="M18.099,325.086c36.63,0,73.261,0,109.892,0c63.229,0,126.457,0,189.685,0c22.775,0,45.55,0,68.325,0c4.514,0,4.514-7,0-7
			c-36.631,0-73.261,0-109.892,0c-63.229,0-126.457,0-189.685,0c-22.775,0-45.55,0-68.325,0
			C13.584,318.086,13.584,325.086,18.099,325.086L18.099,325.086z"/>
	</g>
</g>
</svg>
