<?xml version="1.0" encoding="utf-8"?>
<!-- Generator: Adobe Illustrator 15.0.0, SVG Export Plug-In . SVG Version: 6.00 Build 0)  -->
<!DOCTYPE svg PUBLIC "-//W3C//DTD SVG 1.1//EN" "http://www.w3.org/Graphics/SVG/1.1/DTD/svg11.dtd">
<svg version="1.1" id="Layer_1" xmlns="http://www.w3.org/2000/svg" xmlns:xlink="http://www.w3.org/1999/xlink" x="0px" y="0px"
	 width="400px" height="400px" viewBox="0 0 400 400" enable-background="new 0 0 400 400" xml:space="preserve">
<g>
	<ellipse fill="#FFFFFF" cx="200" cy="199.999" rx="156.02" ry="150.448"/>
	<g>
		<path d="M40.48,199.999c0.207,44.284,20.051,86.136,53.502,115.019c34.412,29.715,80.818,43.023,125.801,37.732
			c44.021-5.18,84.371-28.619,110.715-64.219c26.483-35.791,35.165-82.564,24.362-125.617c-10.635-42.379-40.62-78.161-79.021-98.38
			c-40.508-21.328-89.573-24.096-132.479-8.483C83.126,77.97,40.781,135.596,40.48,199.999c-0.021,4.515,6.979,4.513,7,0
			c0.211-45.286,22.004-87.819,57.896-115.287C142.4,56.378,191.338,46.748,236.562,57.3c43.689,10.194,81.41,39.83,101.414,79.973
			c20.324,40.787,18.912,90.044-2.393,130.101c-21.178,39.814-60.531,67.459-104.395,76.508
			c-45.534,9.393-94.338-2.668-130.25-32.123c-33.4-27.396-53.256-68.553-53.458-111.759
			C47.459,195.486,40.459,195.484,40.48,199.999z"/>
	</g>
</g>
<g>
	<g>
		<path d="M144.826,52.133c-2.696,15.502,14.409,26.935,25.748,33.72c23.755,14.215,51.543,22.191,78.476,27.652
			c4.407,0.894,6.283-5.854,1.861-6.75c-24.519-4.971-49.013-12.118-71.226-23.819c-7.633-4.021-15.078-8.712-21.246-14.791
			c-3.561-3.509-7.801-8.756-6.863-14.151C152.344,49.581,145.599,47.692,144.826,52.133L144.826,52.133z"/>
	</g>
</g>
<g>
	<g>
		<path d="M259.957,15.894c-9.479-12.217-30.621-6.57-42.738-2.827c-26.126,8.071-50.343,22.915-72.287,38.921
			c-3.607,2.631-0.121,8.709,3.533,6.044c20.508-14.959,42.694-28.476,66.736-36.932c10.129-3.563,31.426-11.058,39.807-0.256
			C257.771,24.406,262.688,19.414,259.957,15.894L259.957,15.894z"/>
	</g>
</g>
</svg>
