<?xml version="1.0" encoding="utf-8"?>
<!-- Generator: Adobe Illustrator 15.0.0, SVG Export Plug-In . SVG Version: 6.00 Build 0)  -->
<!DOCTYPE svg PUBLIC "-//W3C//DTD SVG 1.1//EN" "http://www.w3.org/Graphics/SVG/1.1/DTD/svg11.dtd">
<svg version="1.1" id="Layer_1" xmlns="http://www.w3.org/2000/svg" xmlns:xlink="http://www.w3.org/1999/xlink" x="0px" y="0px"
	 width="400.48px" height="284.986px" viewBox="0 0 400.48 284.986" enable-background="new 0 0 400.48 284.986"
	 xml:space="preserve">
<g>
	<path fill="#FFFFFF" d="M20.698,141.769c0,78.299,98.044,129.718,179.241,129.718c81.198,0,179.241-51.419,179.241-129.718
		C379.18,63.473,281.137,12,199.939,12C118.743,12,20.698,63.473,20.698,141.769z"/>
	<g>
		<path d="M19.198,141.769c0.276,41.677,27.962,74.965,61.573,96.587c36.716,23.62,82.073,35.818,125.646,34.523
			c43.596-1.296,88.31-15.966,123.445-41.939c32.168-23.782,55.23-60.162,50.012-101.37c-5.203-41.079-37.576-72.062-72.188-91.172
			c-38.33-21.165-83.73-31.006-127.34-26.938C111.705,17.863,19.727,61.936,19.198,141.769c-0.013,1.935,2.987,1.934,3,0
			C22.493,97.29,54.73,63.151,91.374,42.286c39.165-22.301,85.996-32.29,130.801-27.555c44.411,4.693,90.097,22.795,122.331,54.27
			c14.816,14.467,26.172,32.439,30.932,52.708c4.813,20.495,1.73,42.129-7.432,60.95c-19.313,39.678-62.01,64.301-102.613,77.04
			c-43.788,13.738-89.874,13.144-133.507-0.824C79.757,242.188,22.598,202.141,22.198,141.769
			C22.186,139.835,19.186,139.834,19.198,141.769z"/>
	</g>
</g>
</svg>
